# xmcd
# 
# Track frame offsets:
#     150
#     16844
#     36110
#     59997
#     80871
#     102003
#     107982
#     121421
#     143472
#     158180
#     176192
#     181985
#     202168
#     219450
#     252898
# 
# Disc length: 3819
# 
# Revision: 1
# Processed by: cddbd v1.5.2PL0 Copyright (c) Steve Scherf et al.
# Submitted via: BonkEnc v1.0
# 
DISCID=db0ee90f
DTITLE=Billy's Band - ÎОторвёмся по-питерски
DYEAR=2005
DGENRE=Blues
TTITLE0=Оторвёмся по-питерски
TTITLE1=Я не вернусь
TTITLE2=В голове блюз
TTITLE3=Я послала любовь
TTITLE4=Так я падал
TTITLE5=Упражнение в...(инструментал)
TTITLE6=32 рубля
TTITLE7=Где спит твоё сердце
TTITLE8=Не верь мужикам
TTITLE9=В этом городе
TTITLE10=Зимнее утро (инструментал)
TTITLE11=Кладбище девичьих сердец
TTITLE12=Оторвёмся по-питерски (джаззз)
TTITLE13=Оторвёмся по-питерски (видео)
TTITLE14=DATA
EXTD=http://u-p-c.ru
EXTT0=
EXTT1=
EXTT2=
EXTT3=
EXTT4=
EXTT5=
EXTT6=
EXTT7=
EXTT8=
EXTT9=
EXTT10=
EXTT11=
EXTT12=
EXTT13=
EXTT14=
PLAYORDER=
